<mxfile host="app.diagrams.net" agent="Mozilla/5.0 (Windows NT 10.0; Win64; x64) AppleWebKit/537.36 (KHTML, like Gecko) Chrome/129.0.0.0 Safari/537.36 Edg/129.0.0.0" version="24.7.16" pages="2">
  <diagram name="Page-1" id="RuCnbBIsjUf5I5NyDEwZ">
    <mxGraphModel>
      <root>
        <mxCell id="0" />
        <mxCell id="1" parent="0" />
      </root>
    </mxGraphModel>
  </diagram>
  <diagram id="vUGVqtZLJylBDliw5mvh" name="Page-2">
    <mxGraphModel dx="558" dy="259" grid="1" gridSize="10" guides="1" tooltips="1" connect="1" arrows="1" fold="1" page="1" pageScale="1" pageWidth="2339" pageHeight="3300" math="0" shadow="0">
      <root>
        <mxCell id="0" />
        <mxCell id="1" parent="0" />
        <mxCell id="yXwy55dE5661ueY_nYFr-74" value="" style="rounded=0;whiteSpace=wrap;html=1;shadow=0;fillColor=#E6E6E6;" parent="1" vertex="1">
          <mxGeometry x="240" y="470" width="320" height="370" as="geometry" />
        </mxCell>
        <mxCell id="yXwy55dE5661ueY_nYFr-92" value="" style="rounded=0;whiteSpace=wrap;html=1;fillColor=#E6E6E6;" parent="1" vertex="1">
          <mxGeometry x="1237.25" y="840" width="230" height="307.5" as="geometry" />
        </mxCell>
        <mxCell id="yXwy55dE5661ueY_nYFr-1" value="" style="rounded=0;whiteSpace=wrap;html=1;fillColor=#E6E6E6;" parent="1" vertex="1">
          <mxGeometry x="648" y="520" width="1032" height="200" as="geometry" />
        </mxCell>
        <mxCell id="yXwy55dE5661ueY_nYFr-2" value="" style="rounded=0;whiteSpace=wrap;html=1;" parent="1" vertex="1">
          <mxGeometry x="690" y="600" width="160" height="60" as="geometry" />
        </mxCell>
        <mxCell id="yXwy55dE5661ueY_nYFr-3" value="AXS-Frontend&lt;br&gt;&lt;b&gt;Subscription Center&lt;/b&gt;" style="text;html=1;align=center;verticalAlign=middle;whiteSpace=wrap;rounded=0;" parent="1" vertex="1">
          <mxGeometry x="707.5" y="615" width="125" height="30" as="geometry" />
        </mxCell>
        <mxCell id="yXwy55dE5661ueY_nYFr-4" value="" style="rounded=0;whiteSpace=wrap;html=1;" parent="1" vertex="1">
          <mxGeometry x="1030" y="600" width="160" height="60" as="geometry" />
        </mxCell>
        <mxCell id="yXwy55dE5661ueY_nYFr-6" value="" style="rounded=0;whiteSpace=wrap;html=1;" parent="1" vertex="1">
          <mxGeometry x="1497" y="600" width="160" height="60" as="geometry" />
        </mxCell>
        <mxCell id="yXwy55dE5661ueY_nYFr-10" value="" style="rounded=0;whiteSpace=wrap;html=1;" parent="1" vertex="1">
          <mxGeometry x="862" y="730" width="160" height="60" as="geometry" />
        </mxCell>
        <mxCell id="yXwy55dE5661ueY_nYFr-11" value="User Preference Service" style="text;html=1;align=center;verticalAlign=middle;whiteSpace=wrap;rounded=0;" parent="1" vertex="1">
          <mxGeometry x="892" y="745" width="100" height="30" as="geometry" />
        </mxCell>
        <mxCell id="yXwy55dE5661ueY_nYFr-12" value="" style="ellipse;whiteSpace=wrap;html=1;" parent="1" vertex="1">
          <mxGeometry x="400" y="590" width="120" height="80" as="geometry" />
        </mxCell>
        <mxCell id="yXwy55dE5661ueY_nYFr-13" value="Customer" style="text;html=1;align=center;verticalAlign=middle;whiteSpace=wrap;rounded=0;" parent="1" vertex="1">
          <mxGeometry x="430" y="615" width="60" height="30" as="geometry" />
        </mxCell>
        <mxCell id="yXwy55dE5661ueY_nYFr-17" value="" style="endArrow=classic;startArrow=classic;html=1;rounded=0;entryX=0;entryY=0.5;entryDx=0;entryDy=0;" parent="1" target="yXwy55dE5661ueY_nYFr-6" edge="1">
          <mxGeometry width="50" height="50" relative="1" as="geometry">
            <mxPoint x="1190" y="629.78" as="sourcePoint" />
            <mxPoint x="1310" y="630" as="targetPoint" />
          </mxGeometry>
        </mxCell>
        <mxCell id="yXwy55dE5661ueY_nYFr-21" value="" style="rounded=0;whiteSpace=wrap;html=1;fillColor=#E6E6E6;" parent="1" vertex="1">
          <mxGeometry x="1156" y="340" width="340" height="140" as="geometry" />
        </mxCell>
        <mxCell id="yXwy55dE5661ueY_nYFr-22" value="" style="rounded=0;whiteSpace=wrap;html=1;" parent="1" vertex="1">
          <mxGeometry x="1346" y="370" width="120" height="60" as="geometry" />
        </mxCell>
        <mxCell id="yXwy55dE5661ueY_nYFr-23" value="" style="rounded=0;whiteSpace=wrap;html=1;" parent="1" vertex="1">
          <mxGeometry x="1186" y="370" width="120" height="60" as="geometry" />
        </mxCell>
        <mxCell id="yXwy55dE5661ueY_nYFr-24" value="Delego&lt;div&gt;&lt;br/&gt;&lt;/div&gt;" style="text;html=1;align=center;verticalAlign=middle;whiteSpace=wrap;rounded=0;" parent="1" vertex="1">
          <mxGeometry x="1346" y="390" width="119" height="20" as="geometry" />
        </mxCell>
        <mxCell id="yXwy55dE5661ueY_nYFr-25" value="SAP" style="text;html=1;align=center;verticalAlign=middle;whiteSpace=wrap;rounded=0;" parent="1" vertex="1">
          <mxGeometry x="1216" y="375" width="60" height="30" as="geometry" />
        </mxCell>
        <mxCell id="yXwy55dE5661ueY_nYFr-26" value="" style="rounded=0;whiteSpace=wrap;html=1;fillColor=#E6E6E6;" parent="1" vertex="1">
          <mxGeometry x="666" y="340" width="340" height="140" as="geometry" />
        </mxCell>
        <mxCell id="yXwy55dE5661ueY_nYFr-27" value="" style="rounded=0;whiteSpace=wrap;html=1;" parent="1" vertex="1">
          <mxGeometry x="776" y="370" width="120" height="60" as="geometry" />
        </mxCell>
        <mxCell id="yXwy55dE5661ueY_nYFr-28" value="Zuora" style="text;html=1;align=center;verticalAlign=middle;whiteSpace=wrap;rounded=0;" parent="1" vertex="1">
          <mxGeometry x="816" y="385" width="60" height="30" as="geometry" />
        </mxCell>
        <mxCell id="yXwy55dE5661ueY_nYFr-30" value="" style="rounded=0;whiteSpace=wrap;html=1;" parent="1" vertex="1">
          <mxGeometry x="915" y="980" width="120" height="60" as="geometry" />
        </mxCell>
        <mxCell id="yXwy55dE5661ueY_nYFr-31" value="Courier" style="text;html=1;align=center;verticalAlign=middle;whiteSpace=wrap;rounded=0;" parent="1" vertex="1">
          <mxGeometry x="945" y="995" width="60" height="30" as="geometry" />
        </mxCell>
        <mxCell id="yXwy55dE5661ueY_nYFr-32" value="" style="endArrow=classic;html=1;rounded=0;" parent="1" edge="1">
          <mxGeometry width="50" height="50" relative="1" as="geometry">
            <mxPoint x="970" y="790" as="sourcePoint" />
            <mxPoint x="970" y="980" as="targetPoint" />
          </mxGeometry>
        </mxCell>
        <mxCell id="yXwy55dE5661ueY_nYFr-33" value="" style="endArrow=classic;html=1;rounded=0;entryX=0.5;entryY=1;entryDx=0;entryDy=0;exitX=0;exitY=0.5;exitDx=0;exitDy=0;" parent="1" source="yXwy55dE5661ueY_nYFr-30" target="yXwy55dE5661ueY_nYFr-12" edge="1">
          <mxGeometry width="50" height="50" relative="1" as="geometry">
            <mxPoint x="1050" y="1010" as="sourcePoint" />
            <mxPoint x="925" y="1010" as="targetPoint" />
            <Array as="points">
              <mxPoint x="460" y="1010" />
            </Array>
          </mxGeometry>
        </mxCell>
        <mxCell id="yXwy55dE5661ueY_nYFr-34" value="Sends Email Notification for Purchase/Cancel/Upgrade/Downgrade" style="text;html=1;align=center;verticalAlign=middle;whiteSpace=wrap;rounded=0;" parent="1" vertex="1">
          <mxGeometry x="680" y="1020" width="180" height="30" as="geometry" />
        </mxCell>
        <mxCell id="yXwy55dE5661ueY_nYFr-35" value="" style="endArrow=classic;startArrow=classic;html=1;rounded=0;exitX=0.552;exitY=0.02;exitDx=0;exitDy=0;exitPerimeter=0;" parent="1" source="yXwy55dE5661ueY_nYFr-4" edge="1">
          <mxGeometry width="50" height="50" relative="1" as="geometry">
            <mxPoint x="1320" y="530" as="sourcePoint" />
            <mxPoint x="1370" y="480" as="targetPoint" />
            <Array as="points">
              <mxPoint x="1120" y="500" />
              <mxPoint x="1370" y="500" />
            </Array>
          </mxGeometry>
        </mxCell>
        <mxCell id="yXwy55dE5661ueY_nYFr-36" value="" style="endArrow=classic;startArrow=classic;html=1;rounded=0;" parent="1" edge="1">
          <mxGeometry width="50" height="50" relative="1" as="geometry">
            <mxPoint x="1040" y="600" as="sourcePoint" />
            <mxPoint x="880" y="480" as="targetPoint" />
            <Array as="points">
              <mxPoint x="1040" y="500" />
              <mxPoint x="880" y="500" />
            </Array>
          </mxGeometry>
        </mxCell>
        <mxCell id="yXwy55dE5661ueY_nYFr-38" value="Fetch Message to send Notification" style="text;html=1;align=center;verticalAlign=middle;whiteSpace=wrap;rounded=0;rotation=90;" parent="1" vertex="1">
          <mxGeometry x="1000" y="910" width="190" height="20" as="geometry" />
        </mxCell>
        <mxCell id="yXwy55dE5661ueY_nYFr-39" value="Org Admin" style="ellipse;whiteSpace=wrap;html=1;" parent="1" vertex="1">
          <mxGeometry x="320" y="700" width="60" height="40" as="geometry" />
        </mxCell>
        <mxCell id="yXwy55dE5661ueY_nYFr-40" value="Org Admin" style="ellipse;whiteSpace=wrap;html=1;" parent="1" vertex="1">
          <mxGeometry x="320" y="730" width="60" height="40" as="geometry" />
        </mxCell>
        <mxCell id="yXwy55dE5661ueY_nYFr-41" value="" style="endArrow=classic;html=1;rounded=0;" parent="1" edge="1">
          <mxGeometry width="50" height="50" relative="1" as="geometry">
            <mxPoint x="460" y="1010" as="sourcePoint" />
            <mxPoint x="350" y="770" as="targetPoint" />
            <Array as="points">
              <mxPoint x="350" y="1010" />
            </Array>
          </mxGeometry>
        </mxCell>
        <mxCell id="yXwy55dE5661ueY_nYFr-42" value="Create License" style="text;html=1;align=center;verticalAlign=middle;whiteSpace=wrap;rounded=0;" parent="1" vertex="1">
          <mxGeometry x="1315" y="610" width="100" height="20" as="geometry" />
        </mxCell>
        <mxCell id="yXwy55dE5661ueY_nYFr-43" value="Manages Billing and Subscription Lifecycle" style="text;html=1;align=center;verticalAlign=middle;whiteSpace=wrap;rounded=0;" parent="1" vertex="1">
          <mxGeometry x="703.5" y="450" width="272.5" height="30" as="geometry" />
        </mxCell>
        <mxCell id="yXwy55dE5661ueY_nYFr-44" value="Manages Invoice and Payment" style="text;html=1;align=center;verticalAlign=middle;whiteSpace=wrap;rounded=0;" parent="1" vertex="1">
          <mxGeometry x="1193.5" y="450" width="272.5" height="30" as="geometry" />
        </mxCell>
        <mxCell id="yXwy55dE5661ueY_nYFr-46" value="Sends Invoice" style="text;html=1;align=center;verticalAlign=middle;whiteSpace=wrap;rounded=0;" parent="1" vertex="1">
          <mxGeometry x="1026" y="380" width="95" height="20" as="geometry" />
        </mxCell>
        <mxCell id="yXwy55dE5661ueY_nYFr-47" value="&lt;font style=&quot;font-size: 9px;&quot;&gt;Purchase/Cancel/Upgrade/Downgrade&lt;/font&gt;" style="text;html=1;align=center;verticalAlign=middle;whiteSpace=wrap;rounded=0;" parent="1" vertex="1">
          <mxGeometry x="867" y="616" width="150" height="10" as="geometry" />
        </mxCell>
        <mxCell id="yXwy55dE5661ueY_nYFr-48" value="&lt;font style=&quot;font-size: 10px;&quot;&gt;Send Notifications to the customer(if not admin) and all Admins&lt;/font&gt;" style="text;html=1;align=center;verticalAlign=middle;whiteSpace=wrap;rounded=0;rotation=90;" parent="1" vertex="1">
          <mxGeometry x="920" y="870" width="154" height="40" as="geometry" />
        </mxCell>
        <mxCell id="yXwy55dE5661ueY_nYFr-51" value="" style="rounded=0;whiteSpace=wrap;html=1;fillColor=#E6E6E6;" parent="1" vertex="1">
          <mxGeometry x="1795" y="340" width="320" height="590" as="geometry" />
        </mxCell>
        <mxCell id="yXwy55dE5661ueY_nYFr-49" value="" style="rounded=0;whiteSpace=wrap;html=1;" parent="1" vertex="1">
          <mxGeometry x="1865" y="355" width="160" height="60" as="geometry" />
        </mxCell>
        <mxCell id="yXwy55dE5661ueY_nYFr-50" value="coDiagnosticX" style="text;html=1;align=center;verticalAlign=middle;whiteSpace=wrap;rounded=0;" parent="1" vertex="1">
          <mxGeometry x="1880" y="370" width="130" height="30" as="geometry" />
        </mxCell>
        <mxCell id="yXwy55dE5661ueY_nYFr-52" value="" style="rounded=0;whiteSpace=wrap;html=1;" parent="1" vertex="1">
          <mxGeometry x="1865" y="660" width="160" height="60" as="geometry" />
        </mxCell>
        <mxCell id="yXwy55dE5661ueY_nYFr-53" value="SIRIOS" style="text;html=1;align=center;verticalAlign=middle;whiteSpace=wrap;rounded=0;" parent="1" vertex="1">
          <mxGeometry x="1880" y="675" width="130" height="30" as="geometry" />
        </mxCell>
        <mxCell id="yXwy55dE5661ueY_nYFr-54" value="" style="endArrow=none;html=1;rounded=0;entryX=1;entryY=0.5;entryDx=0;entryDy=0;exitX=0;exitY=0.5;exitDx=0;exitDy=0;" parent="1" source="yXwy55dE5661ueY_nYFr-51" target="yXwy55dE5661ueY_nYFr-51" edge="1">
          <mxGeometry width="50" height="50" relative="1" as="geometry">
            <mxPoint x="1795" y="615" as="sourcePoint" />
            <mxPoint x="1845" y="565" as="targetPoint" />
          </mxGeometry>
        </mxCell>
        <mxCell id="yXwy55dE5661ueY_nYFr-57" value="" style="endArrow=none;html=1;rounded=0;entryX=0.75;entryY=0;entryDx=0;entryDy=0;" parent="1" edge="1">
          <mxGeometry width="50" height="50" relative="1" as="geometry">
            <mxPoint x="2084" y="635" as="sourcePoint" />
            <mxPoint x="2084" y="340" as="targetPoint" />
          </mxGeometry>
        </mxCell>
        <mxCell id="yXwy55dE5661ueY_nYFr-58" value="" style="endArrow=none;html=1;rounded=0;entryX=0.75;entryY=0;entryDx=0;entryDy=0;" parent="1" edge="1">
          <mxGeometry width="50" height="50" relative="1" as="geometry">
            <mxPoint x="2084" y="930" as="sourcePoint" />
            <mxPoint x="2084" y="635" as="targetPoint" />
          </mxGeometry>
        </mxCell>
        <mxCell id="yXwy55dE5661ueY_nYFr-60" value="&lt;b&gt;Hardware&lt;/b&gt;" style="text;html=1;align=center;verticalAlign=middle;whiteSpace=wrap;rounded=0;rotation=-90;" parent="1" vertex="1">
          <mxGeometry x="2065" y="762" width="60" height="30" as="geometry" />
        </mxCell>
        <mxCell id="yXwy55dE5661ueY_nYFr-61" value="&lt;b&gt;Software&lt;/b&gt;" style="text;html=1;align=center;verticalAlign=middle;whiteSpace=wrap;rounded=0;rotation=-90;" parent="1" vertex="1">
          <mxGeometry x="2065" y="470" width="60" height="30" as="geometry" />
        </mxCell>
        <mxCell id="yXwy55dE5661ueY_nYFr-62" value="" style="endArrow=classic;startArrow=classic;html=1;rounded=0;entryX=-0.001;entryY=0.254;entryDx=0;entryDy=0;entryPerimeter=0;" parent="1" target="yXwy55dE5661ueY_nYFr-51" edge="1">
          <mxGeometry width="50" height="50" relative="1" as="geometry">
            <mxPoint x="1656" y="630" as="sourcePoint" />
            <mxPoint x="1790" y="490" as="targetPoint" />
            <Array as="points">
              <mxPoint x="1690" y="630" />
              <mxPoint x="1690" y="490" />
            </Array>
          </mxGeometry>
        </mxCell>
        <mxCell id="yXwy55dE5661ueY_nYFr-63" value="" style="endArrow=classic;html=1;rounded=0;exitX=0.5;exitY=0;exitDx=0;exitDy=0;entryX=0.482;entryY=0.015;entryDx=0;entryDy=0;entryPerimeter=0;" parent="1" source="yXwy55dE5661ueY_nYFr-6" target="yXwy55dE5661ueY_nYFr-26" edge="1">
          <mxGeometry width="50" height="50" relative="1" as="geometry">
            <mxPoint x="967" y="540" as="sourcePoint" />
            <mxPoint x="880" y="270" as="targetPoint" />
            <Array as="points">
              <mxPoint x="1577" y="280" />
              <mxPoint x="830" y="280" />
            </Array>
          </mxGeometry>
        </mxCell>
        <mxCell id="yXwy55dE5661ueY_nYFr-64" value="&lt;font style=&quot;font-size: 8px;&quot;&gt;Posts Usages for Features with cost.&lt;/font&gt;" style="text;html=1;align=center;verticalAlign=middle;whiteSpace=wrap;rounded=0;rotation=90;" parent="1" vertex="1">
          <mxGeometry x="1512" y="395" width="145" height="20" as="geometry" />
        </mxCell>
        <mxCell id="yXwy55dE5661ueY_nYFr-66" value="?" style="rounded=0;whiteSpace=wrap;html=1;" parent="1" vertex="1">
          <mxGeometry x="1865" y="430" width="160" height="60" as="geometry" />
        </mxCell>
        <mxCell id="yXwy55dE5661ueY_nYFr-67" value="?" style="rounded=0;whiteSpace=wrap;html=1;" parent="1" vertex="1">
          <mxGeometry x="1865" y="510" width="160" height="60" as="geometry" />
        </mxCell>
        <mxCell id="yXwy55dE5661ueY_nYFr-68" value="?" style="rounded=0;whiteSpace=wrap;html=1;" parent="1" vertex="1">
          <mxGeometry x="1865" y="740" width="160" height="60" as="geometry" />
        </mxCell>
        <mxCell id="yXwy55dE5661ueY_nYFr-69" value="?" style="rounded=0;whiteSpace=wrap;html=1;" parent="1" vertex="1">
          <mxGeometry x="1865" y="820" width="160" height="60" as="geometry" />
        </mxCell>
        <mxCell id="yXwy55dE5661ueY_nYFr-70" value="" style="endArrow=classic;html=1;rounded=0;entryX=0.531;entryY=0.003;entryDx=0;entryDy=0;entryPerimeter=0;" parent="1" target="yXwy55dE5661ueY_nYFr-51" edge="1">
          <mxGeometry width="50" height="50" relative="1" as="geometry">
            <mxPoint x="460" y="590" as="sourcePoint" />
            <mxPoint x="1820" y="300" as="targetPoint" />
            <Array as="points">
              <mxPoint x="460" y="260" />
              <mxPoint x="1965" y="260" />
            </Array>
          </mxGeometry>
        </mxCell>
        <mxCell id="yXwy55dE5661ueY_nYFr-73" value="&lt;b&gt;Subscription and License Management&lt;/b&gt;" style="text;html=1;align=center;verticalAlign=middle;whiteSpace=wrap;rounded=0;" parent="1" vertex="1">
          <mxGeometry x="1420" y="690" width="260" height="30" as="geometry" />
        </mxCell>
        <mxCell id="yXwy55dE5661ueY_nYFr-75" value="SAP Organization" style="text;html=1;align=center;verticalAlign=middle;whiteSpace=wrap;rounded=0;" parent="1" vertex="1">
          <mxGeometry x="490" y="810" width="60" height="30" as="geometry" />
        </mxCell>
        <mxCell id="yXwy55dE5661ueY_nYFr-81" value="" style="endArrow=classic;html=1;rounded=0;exitX=0.539;exitY=0.004;exitDx=0;exitDy=0;exitPerimeter=0;" parent="1" source="yXwy55dE5661ueY_nYFr-23" edge="1">
          <mxGeometry width="50" height="50" relative="1" as="geometry">
            <mxPoint x="1246" y="370.19" as="sourcePoint" />
            <mxPoint x="528" y="470" as="targetPoint" />
            <Array as="points">
              <mxPoint x="1250" y="300" />
              <mxPoint x="528" y="300.19" />
            </Array>
          </mxGeometry>
        </mxCell>
        <mxCell id="yXwy55dE5661ueY_nYFr-83" value="" style="rounded=0;whiteSpace=wrap;html=1;" parent="1" vertex="1">
          <mxGeometry x="1272.25" y="925" width="160" height="60" as="geometry" />
        </mxCell>
        <mxCell id="yXwy55dE5661ueY_nYFr-84" value="Azure AppInsights&lt;br&gt;(Logging)" style="text;html=1;align=center;verticalAlign=middle;whiteSpace=wrap;rounded=0;" parent="1" vertex="1">
          <mxGeometry x="1297.25" y="940" width="110" height="30" as="geometry" />
        </mxCell>
        <mxCell id="yXwy55dE5661ueY_nYFr-85" value="" style="rounded=0;whiteSpace=wrap;html=1;" parent="1" vertex="1">
          <mxGeometry x="1272.25" y="855" width="160" height="60" as="geometry" />
        </mxCell>
        <mxCell id="yXwy55dE5661ueY_nYFr-88" value="&lt;div&gt;&lt;font style=&quot;font-size: 8px;&quot;&gt;&lt;b style=&quot;&quot;&gt;Credit Cards Management&lt;/b&gt;&lt;/font&gt;&lt;/div&gt;" style="text;html=1;align=center;verticalAlign=middle;whiteSpace=wrap;rounded=0;" parent="1" vertex="1">
          <mxGeometry x="1343.75" y="412" width="123.5" height="20" as="geometry" />
        </mxCell>
        <mxCell id="yXwy55dE5661ueY_nYFr-90" value="" style="rounded=0;whiteSpace=wrap;html=1;" parent="1" vertex="1">
          <mxGeometry x="1272.25" y="993" width="160" height="60" as="geometry" />
        </mxCell>
        <mxCell id="yXwy55dE5661ueY_nYFr-91" value="Azure Service Bus" style="text;html=1;align=center;verticalAlign=middle;whiteSpace=wrap;rounded=0;" parent="1" vertex="1">
          <mxGeometry x="1312.25" y="1008" width="80" height="30" as="geometry" />
        </mxCell>
        <mxCell id="yXwy55dE5661ueY_nYFr-93" value="&lt;b&gt;Azure Services&lt;/b&gt;" style="text;html=1;align=center;verticalAlign=middle;whiteSpace=wrap;rounded=0;" parent="1" vertex="1">
          <mxGeometry x="1368.25" y="1122.5" width="104" height="30" as="geometry" />
        </mxCell>
        <mxCell id="yXwy55dE5661ueY_nYFr-94" value="?" style="rounded=0;whiteSpace=wrap;html=1;" parent="1" vertex="1">
          <mxGeometry x="1272.25" y="1060.5" width="160" height="60" as="geometry" />
        </mxCell>
        <mxCell id="yXwy55dE5661ueY_nYFr-95" value="&lt;b&gt;ST9&lt;/b&gt;" style="text;html=1;align=center;verticalAlign=middle;whiteSpace=wrap;rounded=0;" parent="1" vertex="1">
          <mxGeometry x="978" y="766" width="60" height="30" as="geometry" />
        </mxCell>
        <mxCell id="yXwy55dE5661ueY_nYFr-96" value="" style="endArrow=classic;html=1;rounded=0;entryX=0.01;entryY=0.294;entryDx=0;entryDy=0;entryPerimeter=0;" parent="1" target="yXwy55dE5661ueY_nYFr-90" edge="1">
          <mxGeometry width="50" height="50" relative="1" as="geometry">
            <mxPoint x="1159" y="660" as="sourcePoint" />
            <mxPoint x="1140" y="695" as="targetPoint" />
            <Array as="points">
              <mxPoint x="1160" y="1010" />
            </Array>
          </mxGeometry>
        </mxCell>
        <mxCell id="yXwy55dE5661ueY_nYFr-97" value="" style="endArrow=classic;html=1;rounded=0;entryX=0.997;entryY=0.389;entryDx=0;entryDy=0;entryPerimeter=0;exitX=-0.006;exitY=0.642;exitDx=0;exitDy=0;exitPerimeter=0;" parent="1" source="yXwy55dE5661ueY_nYFr-90" target="yXwy55dE5661ueY_nYFr-10" edge="1">
          <mxGeometry width="50" height="50" relative="1" as="geometry">
            <mxPoint x="1140" y="1090" as="sourcePoint" />
            <mxPoint x="1098.5" y="870" as="targetPoint" />
            <Array as="points">
              <mxPoint x="1080" y="1030" />
              <mxPoint x="1080" y="753" />
            </Array>
          </mxGeometry>
        </mxCell>
        <mxCell id="yXwy55dE5661ueY_nYFr-98" value="Sends Message to for Notification" style="text;html=1;align=center;verticalAlign=middle;whiteSpace=wrap;rounded=0;rotation=90;" parent="1" vertex="1">
          <mxGeometry x="1067.5" y="902.5" width="205" height="20" as="geometry" />
        </mxCell>
        <mxCell id="yXwy55dE5661ueY_nYFr-99" value="" style="endArrow=classic;html=1;rounded=0;entryX=0.004;entryY=0.565;entryDx=0;entryDy=0;entryPerimeter=0;" parent="1" target="yXwy55dE5661ueY_nYFr-23" edge="1">
          <mxGeometry width="50" height="50" relative="1" as="geometry">
            <mxPoint x="895" y="405" as="sourcePoint" />
            <mxPoint x="945" y="355" as="targetPoint" />
          </mxGeometry>
        </mxCell>
        <mxCell id="yXwy55dE5661ueY_nYFr-100" value="" style="endArrow=classic;html=1;rounded=0;entryX=0.5;entryY=0;entryDx=0;entryDy=0;" parent="1" target="yXwy55dE5661ueY_nYFr-92" edge="1">
          <mxGeometry width="50" height="50" relative="1" as="geometry">
            <mxPoint x="1350" y="680" as="sourcePoint" />
            <mxPoint x="1287.25" y="680" as="targetPoint" />
          </mxGeometry>
        </mxCell>
        <mxCell id="yXwy55dE5661ueY_nYFr-101" value="" style="endArrow=none;html=1;rounded=0;exitX=0.935;exitY=1.004;exitDx=0;exitDy=0;exitPerimeter=0;" parent="1" source="yXwy55dE5661ueY_nYFr-4" edge="1">
          <mxGeometry width="50" height="50" relative="1" as="geometry">
            <mxPoint x="1265" y="700" as="sourcePoint" />
            <mxPoint x="1510" y="660" as="targetPoint" />
            <Array as="points">
              <mxPoint x="1180" y="680" />
              <mxPoint x="1510" y="680" />
            </Array>
          </mxGeometry>
        </mxCell>
        <mxCell id="yXwy55dE5661ueY_nYFr-86" value="&lt;font style=&quot;font-size: 10px;&quot;&gt;Azure ADB2C&lt;br&gt;(Authentication and Authorization)&lt;/font&gt;" style="text;html=1;align=center;verticalAlign=middle;whiteSpace=wrap;rounded=0;" parent="1" vertex="1">
          <mxGeometry x="1252.25" y="870" width="200" height="30" as="geometry" />
        </mxCell>
        <mxCell id="yXwy55dE5661ueY_nYFr-103" value="" style="rounded=0;whiteSpace=wrap;html=1;" parent="1" vertex="1">
          <mxGeometry x="1039" y="605" width="142" height="25" as="geometry" />
        </mxCell>
        <mxCell id="yXwy55dE5661ueY_nYFr-5" value="&lt;font style=&quot;font-size: 8px;&quot;&gt;Subscription Management Service&lt;/font&gt;" style="text;html=1;align=center;verticalAlign=middle;whiteSpace=wrap;rounded=0;" parent="1" vertex="1">
          <mxGeometry x="1040.62" y="609.25" width="136.75" height="12.5" as="geometry" />
        </mxCell>
        <mxCell id="yXwy55dE5661ueY_nYFr-104" value="" style="strokeWidth=2;html=1;shape=mxgraph.flowchart.database;whiteSpace=wrap;" parent="1" vertex="1">
          <mxGeometry x="1098.99" y="640" width="20" height="16" as="geometry" />
        </mxCell>
        <mxCell id="yXwy55dE5661ueY_nYFr-105" value="" style="rounded=0;whiteSpace=wrap;html=1;" parent="1" vertex="1">
          <mxGeometry x="1506" y="605" width="142" height="25" as="geometry" />
        </mxCell>
        <mxCell id="yXwy55dE5661ueY_nYFr-106" value="&lt;font style=&quot;font-size: 8px;&quot;&gt;License Management Service&lt;/font&gt;" style="text;html=1;align=center;verticalAlign=middle;whiteSpace=wrap;rounded=0;" parent="1" vertex="1">
          <mxGeometry x="1507.62" y="609.25" width="136.75" height="12.5" as="geometry" />
        </mxCell>
        <mxCell id="yXwy55dE5661ueY_nYFr-107" value="" style="strokeWidth=2;html=1;shape=mxgraph.flowchart.database;whiteSpace=wrap;" parent="1" vertex="1">
          <mxGeometry x="1565.99" y="640" width="20" height="16" as="geometry" />
        </mxCell>
        <mxCell id="rVRYdUukUyt1yT3pMsM5-1" value="" style="endArrow=classic;html=1;rounded=0;exitX=1;exitY=0.5;exitDx=0;exitDy=0;entryX=0.041;entryY=0.55;entryDx=0;entryDy=0;entryPerimeter=0;" edge="1" parent="1" source="yXwy55dE5661ueY_nYFr-12" target="yXwy55dE5661ueY_nYFr-1">
          <mxGeometry width="50" height="50" relative="1" as="geometry">
            <mxPoint x="590" y="660" as="sourcePoint" />
            <mxPoint x="650" y="630" as="targetPoint" />
          </mxGeometry>
        </mxCell>
        <mxCell id="rVRYdUukUyt1yT3pMsM5-2" value="" style="endArrow=classic;html=1;rounded=0;entryX=0;entryY=0.5;entryDx=0;entryDy=0;" edge="1" parent="1" target="yXwy55dE5661ueY_nYFr-4">
          <mxGeometry width="50" height="50" relative="1" as="geometry">
            <mxPoint x="850" y="630" as="sourcePoint" />
            <mxPoint x="900" y="580" as="targetPoint" />
          </mxGeometry>
        </mxCell>
      </root>
    </mxGraphModel>
  </diagram>
</mxfile>
